<svg width="284" height="82" viewBox="0 0 284 82" fill="none" xmlns="http://www.w3.org/2000/svg">
<path d="M119.445 27.4688V30.9485H108.407V38.6188H117.013V42.0985H108.407V53.473H104.142V27.4688H119.445ZM125.568 30.1253C124.795 30.1253 124.146 29.8634 123.622 29.3396C123.098 28.8158 122.837 28.1672 122.837 27.394C122.837 26.6207 123.098 25.9722 123.622 25.4483C124.146 24.9245 124.795 24.6626 125.568 24.6626C126.316 24.6626 126.952 24.9245 127.476 25.4483C128 25.9722 128.262 26.6207 128.262 27.394C128.262 28.1672 128 28.8158 127.476 29.3396C126.952 29.8634 126.316 30.1253 125.568 30.1253ZM127.663 32.8567V53.473H123.398V32.8567H127.663ZM137.529 25.7851V53.473H133.263V25.7851H137.529ZM162.024 42.6598C162.024 43.433 161.974 44.1315 161.874 44.7551H146.122C146.247 46.4014 146.858 47.7234 147.956 48.7212C149.053 49.7189 150.4 50.2178 151.997 50.2178C154.291 50.2178 155.913 49.2575 156.861 47.3368H161.463C160.839 49.2325 159.704 50.7915 158.058 52.0138C156.437 53.2111 154.416 53.8098 151.997 53.8098C150.026 53.8098 148.255 53.3732 146.684 52.5002C145.137 51.6022 143.915 50.355 143.017 48.7586C142.144 47.1372 141.707 45.2664 141.707 43.1462C141.707 41.0259 142.131 39.1676 142.979 37.5712C143.852 35.9498 145.062 34.7026 146.609 33.8295C148.18 32.9565 149.976 32.52 151.997 32.52C153.942 32.52 155.676 32.944 157.197 33.7921C158.719 34.6402 159.904 35.8375 160.752 37.3841C161.6 38.9057 162.024 40.6642 162.024 42.6598ZM157.572 41.3128C157.547 39.7413 156.985 38.4816 155.888 37.5337C154.79 36.5859 153.431 36.1119 151.81 36.1119C150.338 36.1119 149.078 36.5859 148.031 37.5337C146.983 38.4567 146.359 39.7164 146.16 41.3128H157.572ZM184.435 27.4688C187.203 27.4688 189.623 28.0051 191.693 29.0777C193.789 30.1253 195.398 31.6469 196.52 33.6425C197.668 35.613 198.241 37.9204 198.241 40.5644C198.241 43.2085 197.668 45.5034 196.52 47.449C195.398 49.3947 193.789 50.8913 191.693 51.939C189.623 52.9617 187.203 53.473 184.435 53.473H175.941V27.4688H184.435ZM184.435 49.9933C187.478 49.9933 189.81 49.1702 191.431 47.5239C193.053 45.8775 193.864 43.5577 193.864 40.5644C193.864 37.5462 193.053 35.189 191.431 33.4928C189.81 31.7966 187.478 30.9485 184.435 30.9485H180.207V49.9933H184.435ZM206.734 35.85C207.358 34.8024 208.181 33.9917 209.204 33.418C210.251 32.8193 211.486 32.52 212.908 32.52V36.9351H211.823C210.151 36.9351 208.879 37.3591 208.006 38.2072C207.158 39.0553 206.734 40.527 206.734 42.6223V53.473H202.469V32.8567H206.734V35.85ZM218.999 30.1253C218.225 30.1253 217.577 29.8634 217.053 29.3396C216.529 28.8158 216.267 28.1672 216.267 27.394C216.267 26.6207 216.529 25.9722 217.053 25.4483C217.577 24.9245 218.225 24.6626 218.999 24.6626C219.747 24.6626 220.383 24.9245 220.907 25.4483C221.431 25.9722 221.693 26.6207 221.693 27.394C221.693 28.1672 221.431 28.8158 220.907 29.3396C220.383 29.8634 219.747 30.1253 218.999 30.1253ZM221.094 32.8567V53.473H216.829V32.8567H221.094ZM234.664 49.6566L240.501 32.8567H245.028L237.171 53.473H232.082L224.262 32.8567H228.827L234.664 49.6566ZM267.147 42.6598C267.147 43.433 267.098 44.1315 266.998 44.7551H251.246C251.37 46.4014 251.981 47.7234 253.079 48.7212C254.177 49.7189 255.524 50.2178 257.12 50.2178C259.415 50.2178 261.036 49.2575 261.984 47.3368H266.586C265.963 49.2325 264.828 50.7915 263.181 52.0138C261.56 53.2111 259.54 53.8098 257.12 53.8098C255.149 53.8098 253.378 53.3732 251.807 52.5002C250.26 51.6022 249.038 50.355 248.14 48.7586C247.267 47.1372 246.83 45.2664 246.83 43.1462C246.83 41.0259 247.255 39.1676 248.103 37.5712C248.976 35.9498 250.185 34.7026 251.732 33.8295C253.303 32.9565 255.099 32.52 257.12 32.52C259.066 32.52 260.799 32.944 262.321 33.7921C263.842 34.6402 265.027 35.8375 265.875 37.3841C266.723 38.9057 267.147 40.6642 267.147 42.6598ZM262.695 41.3128C262.67 39.7413 262.109 38.4816 261.011 37.5337C259.914 36.5859 258.554 36.1119 256.933 36.1119C255.461 36.1119 254.201 36.5859 253.154 37.5337C252.106 38.4567 251.483 39.7164 251.283 41.3128H262.695ZM275.611 35.85C276.234 34.8024 277.057 33.9917 278.08 33.418C279.128 32.8193 280.362 32.52 281.784 32.52V36.9351H280.699C279.028 36.9351 277.756 37.3591 276.883 38.2072C276.035 39.0553 275.611 40.527 275.611 42.6223V53.473H271.345V32.8567H275.611V35.85Z" fill="white"/>
<rect opacity="0.2" width="74.8323" height="74.8323" rx="37.4161" fill="white"/>
<rect x="32.7393" y="31.1801" width="49.8882" height="49.8882" rx="24.9441" fill="white"/>
</svg>
