<svg width="182" height="52" viewBox="0 0 182 52" fill="none" xmlns="http://www.w3.org/2000/svg">
<path d="M76.616 17.32V19.552H69.536V24.472H75.056V26.704H69.536V34H66.8V17.32H76.616ZM80.5436 19.024C80.0476 19.024 79.6316 18.856 79.2956 18.52C78.9596 18.184 78.7916 17.768 78.7916 17.272C78.7916 16.776 78.9596 16.36 79.2956 16.024C79.6316 15.688 80.0476 15.52 80.5436 15.52C81.0236 15.52 81.4316 15.688 81.7676 16.024C82.1036 16.36 82.2716 16.776 82.2716 17.272C82.2716 17.768 82.1036 18.184 81.7676 18.52C81.4316 18.856 81.0236 19.024 80.5436 19.024ZM81.8876 20.776V34H79.1516V20.776H81.8876ZM88.2157 16.24V34H85.4797V16.24H88.2157ZM103.928 27.064C103.928 27.56 103.896 28.008 103.832 28.408H93.7278C93.8078 29.464 94.1998 30.312 94.9038 30.952C95.6078 31.592 96.4718 31.912 97.4958 31.912C98.9678 31.912 100.008 31.296 100.616 30.064H103.568C103.168 31.28 102.44 32.28 101.384 33.064C100.344 33.832 99.0478 34.216 97.4958 34.216C96.2318 34.216 95.0958 33.936 94.0878 33.376C93.0958 32.8 92.3118 32 91.7358 30.976C91.1758 29.936 90.8958 28.736 90.8958 27.376C90.8958 26.016 91.1678 24.824 91.7118 23.8C92.2718 22.76 93.0478 21.96 94.0398 21.4C95.0478 20.84 96.1998 20.56 97.4958 20.56C98.7438 20.56 99.8558 20.832 100.832 21.376C101.808 21.92 102.568 22.688 103.112 23.68C103.656 24.656 103.928 25.784 103.928 27.064ZM101.072 26.2C101.056 25.192 100.696 24.384 99.9918 23.776C99.2878 23.168 98.4158 22.864 97.3758 22.864C96.4318 22.864 95.6238 23.168 94.9518 23.776C94.2798 24.368 93.8798 25.176 93.7518 26.2H101.072ZM118.303 17.32C120.079 17.32 121.631 17.664 122.959 18.352C124.303 19.024 125.335 20 126.055 21.28C126.791 22.544 127.159 24.024 127.159 25.72C127.159 27.416 126.791 28.888 126.055 30.136C125.335 31.384 124.303 32.344 122.959 33.016C121.631 33.672 120.079 34 118.303 34H112.855V17.32H118.303ZM118.303 31.768C120.255 31.768 121.751 31.24 122.791 30.184C123.831 29.128 124.351 27.64 124.351 25.72C124.351 23.784 123.831 22.272 122.791 21.184C121.751 20.096 120.255 19.552 118.303 19.552H115.591V31.768H118.303ZM132.606 22.696C133.006 22.024 133.534 21.504 134.19 21.136C134.862 20.752 135.654 20.56 136.566 20.56V23.392H135.87C134.798 23.392 133.982 23.664 133.422 24.208C132.878 24.752 132.606 25.696 132.606 27.04V34H129.87V20.776H132.606V22.696ZM140.473 19.024C139.977 19.024 139.561 18.856 139.225 18.52C138.889 18.184 138.721 17.768 138.721 17.272C138.721 16.776 138.889 16.36 139.225 16.024C139.561 15.688 139.977 15.52 140.473 15.52C140.953 15.52 141.361 15.688 141.697 16.024C142.033 16.36 142.201 16.776 142.201 17.272C142.201 17.768 142.033 18.184 141.697 18.52C141.361 18.856 140.953 19.024 140.473 19.024ZM141.817 20.776V34H139.081V20.776H141.817ZM150.521 31.552L154.265 20.776H157.169L152.129 34H148.865L143.849 20.776H146.777L150.521 31.552ZM171.358 27.064C171.358 27.56 171.326 28.008 171.262 28.408H161.158C161.238 29.464 161.63 30.312 162.334 30.952C163.038 31.592 163.902 31.912 164.926 31.912C166.398 31.912 167.438 31.296 168.046 30.064H170.997C170.598 31.28 169.87 32.28 168.814 33.064C167.774 33.832 166.478 34.216 164.926 34.216C163.662 34.216 162.526 33.936 161.518 33.376C160.526 32.8 159.742 32 159.166 30.976C158.606 29.936 158.326 28.736 158.326 27.376C158.326 26.016 158.598 24.824 159.142 23.8C159.702 22.76 160.478 21.96 161.47 21.4C162.478 20.84 163.63 20.56 164.926 20.56C166.174 20.56 167.286 20.832 168.262 21.376C169.238 21.92 169.998 22.688 170.542 23.68C171.086 24.656 171.358 25.784 171.358 27.064ZM168.502 26.2C168.486 25.192 168.126 24.384 167.422 23.776C166.718 23.168 165.846 22.864 164.806 22.864C163.862 22.864 163.054 23.168 162.382 23.776C161.71 24.368 161.31 25.176 161.182 26.2H168.502ZM176.786 22.696C177.186 22.024 177.714 21.504 178.37 21.136C179.042 20.752 179.834 20.56 180.746 20.56V23.392H180.05C178.978 23.392 178.162 23.664 177.602 24.208C177.058 24.752 176.786 25.696 176.786 27.04V34H174.05V20.776H176.786V22.696Z" fill="#FA7275"/>
<rect opacity="0.2" width="48" height="48" rx="24" fill="#FA7275"/>
<rect x="21" y="20" width="32" height="32" rx="16" fill="#FA7275"/>
</svg>
